<?xml version="1.0" encoding="UTF-8"?>
<svg enable-background="new 0 0 100 100" version="1.1" viewBox="0 0 100 100" xml:space="preserve" xmlns="http://www.w3.org/2000/svg" xmlns:cc="http://creativecommons.org/ns#" xmlns:dc="http://purl.org/dc/elements/1.1/" xmlns:rdf="http://www.w3.org/1999/02/22-rdf-syntax-ns#"><metadata><rdf:RDF><cc:Work rdf:about=""><dc:format>image/svg+xml</dc:format><dc:type rdf:resource="http://purl.org/dc/dcmitype/StillImage"/></cc:Work></rdf:RDF></metadata><path d="m85.826 43.613c-2.108-0.414-5.031-1.592-5.031-2.728 0-2.585-3.996-6.42-9.518-6.42-6.144 0-9.837 3.547-12.001 7.078-0.595-4.138-2.229-6.193-3.822-8.188-2.495-3.122-4.851-6.071-3.235-17.861l0.262-1.917-1.694 0.934c-4.831 2.663-10.843 11.419-10.633 20.29-0.364-0.179-0.727-0.356-1.09-0.534-7.304-3.57-14.204-6.942-19.356-16.094l-1.475-2.618-0.338 2.986c-0.937 8.266-0.191 17.132 2.047 24.327 2.357 7.574 6.306 13.215 11.532 16.54-5.581 0.617-14.349 3.183-20.481 8.736l-0.246 0.223-0.059 0.326c-0.764 4.282 3.013 15.087 7.37 16.83l0.606 0.242 0.454-0.47c2.146-2.224 8.381-7.998 11.871-8.52 6.059 1.933 11.516 2.912 16.222 2.912 15.804 0 20.295-11.002 21.567-17.566 2.134-11.423 17.022-16.583 17.173-16.634l3.461-1.171-3.586-0.703zm-43.674-7.818c-0.632-7.327 3.771-14.97 7.877-18.4-1.139 10.859 1.423 14.066 3.906 17.173 1.849 2.315 3.597 4.502 3.632 10.344-0.246 0.631-0.443 1.213-0.598 1.718-0.025-0.029-0.051-0.055-0.076-0.083-0.292-0.326-0.586-0.645-0.881-0.954-0.197-0.208-0.396-0.406-0.596-0.606-0.123-0.124-0.245-0.249-0.368-0.37-0.229-0.224-0.458-0.441-0.688-0.656-0.091-0.084-0.181-0.169-0.271-0.252-0.249-0.229-0.5-0.454-0.751-0.673-0.062-0.054-0.123-0.106-0.185-0.159-0.273-0.236-0.548-0.469-0.823-0.694-0.013-0.01-0.024-0.02-0.037-0.03-0.895-0.729-1.797-1.404-2.705-2.031-0.038-0.026-0.076-0.054-0.114-0.08-0.221-0.151-0.441-0.298-0.662-0.444-0.14-0.093-0.279-0.185-0.418-0.275-0.176-0.115-0.353-0.227-0.53-0.338-0.199-0.125-0.397-0.249-0.596-0.37-0.133-0.081-0.265-0.163-0.398-0.242-0.292-0.174-0.582-0.345-0.871-0.511-0.048-0.028-0.097-0.057-0.145-0.084-0.372-0.212-0.741-0.419-1.108-0.62-3e-3 -1e-3 -5e-3 -2e-3 -8e-3 -4e-3 -0.347-0.189-0.69-0.373-1.033-0.554-0.1-0.052-0.199-0.104-0.298-0.156-0.244-0.127-0.486-0.252-0.727-0.376-0.132-0.068-0.265-0.136-0.397-0.203-0.043-0.025-0.087-0.048-0.131-0.07zm24.716 25.963c-1.413 7.293-5.971 15.985-19.658 15.985-4.557 0-9.883-0.97-15.831-2.884l-0.191-0.062-0.2 0.02c-4.257 0.411-10.77 6.617-12.754 8.604-2.918-1.993-6.072-10.369-5.678-14.068 6.996-6.154 17.406-8.153 21.404-8.153 0.497 0 0.931 0.029 1.255 0.082l8.785 1.456-8.264-3.316c-12.671-5.086-17.159-22.571-16.17-37.763 5.224 7.797 11.76 10.992 18.643 14.355 0.725 0.354 1.452 0.71 2.181 1.073l0.414 0.208c0.401 0.201 0.81 0.409 1.22 0.621 0.281 0.145 0.562 0.29 0.843 0.439 0.065 0.035 0.131 0.07 0.197 0.105 0.327 0.175 0.655 0.352 0.982 0.533 0.05 0.028 0.101 0.056 0.151 0.084 0.341 0.189 0.682 0.383 1.022 0.581 0.044 0.025 0.088 0.051 0.132 0.077 0.348 0.204 0.695 0.413 1.042 0.626 0.038 0.023 0.076 0.046 0.115 0.07 0.379 0.235 0.758 0.477 1.136 0.725 3e-3 2e-3 7e-3 5e-3 0.011 7e-3 0.367 0.242 0.733 0.492 1.098 0.749 0.158 0.111 0.317 0.229 0.475 0.344 0.195 0.141 0.39 0.281 0.584 0.427 0.205 0.154 0.41 0.315 0.615 0.476 0.147 0.114 0.293 0.229 0.439 0.346 0.218 0.175 0.435 0.355 0.652 0.538 0.137 0.115 0.273 0.231 0.41 0.349 0.216 0.187 0.431 0.377 0.646 0.572 0.142 0.128 0.283 0.259 0.424 0.391 0.206 0.191 0.411 0.385 0.615 0.584 0.16 0.156 0.319 0.317 0.479 0.478 0.184 0.186 0.368 0.37 0.551 0.562 0.2 0.21 0.398 0.429 0.596 0.647 0.144 0.157 0.287 0.31 0.429 0.471 0.343 0.39 0.684 0.79 1.021 1.207l1.336 1.644 3e-3 3e-3 0.347-1.941 0.026-0.147c3e-3 -0.015 0.273-1.491 1.04-3.403l0.07-0.174v-0.054c1.511-3.68 4.857-8.82 11.765-8.82 4.556 0 7.574 3.185 7.574 4.477 0 1.917 1.999 3.128 3.828 3.836-4.677 2.126-14.029 7.502-15.81 17.033z" fill="#fff"/></svg>
