<?xml version="1.0" encoding="UTF-8"?>
<svg xmlns="http://www.w3.org/2000/svg" viewBox="0 0 100 100">
  <circle cx="50" cy="50.099" r="50" fill="#fff"/>
  <path d="m86.313 43.605c-1.9382-0.38065-4.6258-1.4638-4.6258-2.5083 0-2.3768-3.6741-5.9029-8.7513-5.9029-5.6491 0-9.0446 3.2613-11.034 6.5079-0.54707-3.8047-2.0495-5.6942-3.5141-7.5285-2.294-2.8705-4.4603-5.582-2.9744-16.422l0.2409-1.7626-1.5575 0.85877c-4.4419 2.4485-9.9696 10.499-9.7765 18.656-0.33468-0.16458-0.66844-0.32732-1.0022-0.49099-6.7157-3.2824-13.06-6.3828-17.797-14.798l-1.3562-2.4071-0.31077 2.7455c-0.86152 7.6002-0.17562 15.752 1.8821 22.367 2.1671 6.9639 5.798 12.151 10.603 15.208-5.1314 0.5673-13.193 2.9266-18.831 8.0323l-0.22618 0.20504-0.05425 0.29974c-0.70246 3.9371 2.7703 13.872 6.7763 15.474l0.55719 0.22251 0.41743-0.43214c1.9731-2.0449 7.7059-7.3538 10.915-7.8337 5.5709 1.7773 10.588 2.6774 14.915 2.6774 14.531 0 18.66-10.116 19.83-16.151 1.9621-10.503 15.651-15.247 15.79-15.294l3.1822-1.0767zm-40.156-7.1883c-0.58109-6.7368 3.4672-13.764 7.2425-16.918-1.0473 9.9843 1.3084 12.933 3.5914 15.79 1.7001 2.1285 3.3073 4.1394 3.3394 9.5108-0.22618 0.58017-0.40732 1.1153-0.54983 1.5796-0.02299-0.02666-0.04689-0.05057-0.06988-0.07631-0.26848-0.29974-0.5388-0.59304-0.81004-0.87716-0.18113-0.19125-0.3641-0.3733-0.54799-0.55719-0.11309-0.11401-0.22526-0.22894-0.33836-0.3402-0.21055-0.20596-0.42111-0.40548-0.63258-0.60316-0.08367-0.07723-0.16642-0.15539-0.24917-0.2317-0.22894-0.21055-0.45972-0.41743-0.69051-0.61879-0.05701-0.04965-0.11309-0.09746-0.1701-0.14619-0.25101-0.21699-0.50386-0.43122-0.75671-0.6381-0.01195-0.0092-0.02207-0.01839-0.03402-0.02758-0.82291-0.67028-1.6523-1.2909-2.4871-1.8674-0.03494-0.02391-0.06988-0.04965-0.10482-0.07356-0.2032-0.13884-0.40548-0.274-0.60868-0.40824-0.12872-0.08551-0.25653-0.1701-0.38433-0.25285-0.16182-0.10574-0.32457-0.20872-0.48731-0.31077-0.18297-0.11493-0.36502-0.22894-0.54799-0.3402-0.12229-0.07448-0.24366-0.14987-0.36594-0.22251-0.26848-0.15998-0.53512-0.31721-0.80084-0.46984-0.04413-0.02574-0.08919-0.05241-0.13332-0.07723-0.34204-0.19492-0.68131-0.38525-1.0188-0.57006-0.0028-9.2e-4 -0.0046-0.0018-0.0074-0.0037-0.31905-0.17378-0.63442-0.34296-0.94979-0.50938-0.09195-0.04781-0.18297-0.09562-0.274-0.14344-0.22435-0.11677-0.44685-0.2317-0.66844-0.34571-0.12137-0.06252-0.24365-0.12504-0.36502-0.18665-0.03954-0.02299-0.07999-0.04413-0.12045-0.06436zm22.725 23.872c-1.2992 6.7055-5.49 14.697-18.075 14.697-4.1899 0-9.0869-0.89187-14.556-2.6517l-0.17562-0.05701-0.18389 0.01839c-3.9141 0.37789-9.9025 6.084-11.727 7.9109-2.683-1.8325-5.5829-9.5338-5.2206-12.935 6.4325-5.6583 16.004-7.4963 19.68-7.4963 0.45697 0 0.85601 0.02666 1.1539 0.0754l8.0774 1.3387-7.5983-3.0489c-11.65-4.6763-15.777-20.753-14.868-34.721 4.8032 7.169 10.813 10.107 17.141 13.199 0.6666 0.32548 1.335 0.65281 2.0053 0.98657l0.38065 0.19124c0.3687 0.18481 0.74475 0.37606 1.1217 0.57098 0.25837 0.13332 0.51673 0.26664 0.7751 0.40364 0.05976 0.03218 0.12045 0.06436 0.18113 0.09654 0.30066 0.1609 0.60224 0.32365 0.9029 0.49007 0.04597 0.02574 0.09286 0.05149 0.13884 0.07723 0.31353 0.17378 0.62706 0.35215 0.93968 0.5342 0.04046 0.02299 0.08091 0.04689 0.12137 0.0708 0.31997 0.18757 0.63902 0.37973 0.95807 0.57558 0.03494 0.02115 0.06988 0.0423 0.10574 0.06436 0.34847 0.21607 0.69694 0.43858 1.0445 0.6666 0.0028 0.0018 0.0064 0.0046 0.01011 0.0064 0.33744 0.22251 0.67396 0.45237 1.0096 0.68867 0.14527 0.10206 0.29147 0.21055 0.43674 0.31629 0.17929 0.12964 0.35858 0.25837 0.53696 0.3926 0.18849 0.1416 0.37697 0.28963 0.56546 0.43766 0.13516 0.10482 0.2694 0.21055 0.40364 0.31813 0.20044 0.1609 0.39996 0.3264 0.59948 0.49466 0.12596 0.10574 0.25101 0.21239 0.37697 0.32089 0.1986 0.17194 0.39628 0.34663 0.59396 0.52592 0.13056 0.11769 0.2602 0.23814 0.38985 0.3595 0.18941 0.17562 0.37789 0.35399 0.56546 0.53696 0.14711 0.14343 0.2933 0.29146 0.44042 0.4395 0.16918 0.17102 0.33836 0.3402 0.50662 0.51673 0.18389 0.19308 0.36594 0.39444 0.54799 0.59488 0.1324 0.14435 0.26388 0.28503 0.39444 0.43306 0.31537 0.35859 0.6289 0.72636 0.93876 1.1098l1.2284 1.5116 0.0028 0.0028 0.31905-1.7847 0.0239-0.13516c0.0028-0.01379 0.25101-1.3709 0.95623-3.1289l0.06436-0.15998v-0.04965c1.3893-3.3836 4.4658-8.1095 10.817-8.1095 4.189 0 6.9639 2.9284 6.9639 4.1164 0 1.7626 1.838 2.876 3.5197 3.527-4.3003 1.9548-12.899 6.8977-14.536 15.661z"/>
</svg>
