<?xml version="1.0" encoding="UTF-8"?>
<svg version="1.1" viewBox="0 0 100 100" xmlns="http://www.w3.org/2000/svg">
<path d="m99.384 42.178a50 50 0 0 1-41.563 57.206 50 50 0 0 1-57.206-41.563 50 50 0 0 1 41.563-57.206 50 50 0 0 1 57.206 41.563zm-80.597-25.634 16.217 13.8q0.08272 0.0724 0.17196 6e-3 4.1146-3.1122 8.8414-4.1886 1.5315-0.34707 3.8414-0.36854 0.11146-0.0011 0.11275-0.11286l-0.097196-21.697q2.24e-4 -0.10451-0.10371-0.09995-10.427 0.50437-19.443 5.179-5.612 2.91-9.5492 7.3668a0.082102 0.079756 41.2 0 0 0.0087 0.115zm51.923 30.159a20.973 20.973 0 0 0-23.996-17.434 20.973 20.973 0 0 0-17.434 23.996 20.973 20.973 0 0 0 23.996 17.434 20.973 20.973 0 0 0 17.434-23.996z" fill="#fff" />
<path d="m63.662 49.993a13.659 13.659 0 0 1-13.659 13.659 13.659 13.659 0 0 1-13.659-13.659 13.659 13.659 0 0 1 13.659-13.659 13.659 13.659 0 0 1 13.659 13.659zm-5.1185 7e-3a8.5433 8.5433 0 0 0-8.5433-8.5432 8.5433 8.5433 0 0 0-8.5433 8.5433 8.5433 8.5433 0 0 0 8.5433 8.5433 8.5433 8.5433 0 0 0 8.5433-8.5433z" fill="#fff" />
</svg>
