<?xml version="1.0" encoding="UTF-8"?>
<svg viewBox="0 0 1000 1000" xmlns="http://www.w3.org/2000/svg">
<path d="m1e3 500c0 276.14-223.86 500-500 500s-500-223.86-500-500 223.86-500 500-500 500 223.86 500 500z" fill="#E6DAFE"/>
<path d="m575.34 459.16c0 35.518-28.777 64.316-64.268 64.316v64.316c70.982 0 128.54-57.596 128.54-128.63 0-71.035-57.554-128.63-128.54-128.63-23.399 0-45.373 6.254-64.267 17.22-38.427 22.224-64.268 63.793-64.268 111.41v321.58l64.268 64.316v-385.9c0-35.517 28.776-64.316 64.267-64.316s64.268 28.799 64.268 64.316z" fill="#242235"/>
<path d="m511.07 201.9c-46.827 0-90.718 12.538-128.54 34.442-24.213 13.992-45.897 31.823-64.267 52.68-39.997 45.35-64.268 104.92-64.268 170.14v192.95l64.268 64.316v-257.26c0-57.131 24.823-108.47 64.267-143.82 18.545-16.58 40.316-29.67 64.268-38.106 20.085-7.156 41.74-11.025 64.267-11.025 106.47 0 192.8 86.394 192.8 192.95 0 106.55-86.33 192.95-192.8 192.95v64.316c141.99 0 257.07-115.19 257.07-257.26 0-142.07-115.08-257.26-257.07-257.26z" fill="#242235"/>
</svg>
