<?xml version="1.0" encoding="UTF-8"?>
<svg version="1.0" viewBox="0 0 489 502.2" xml:space="preserve" xmlns="http://www.w3.org/2000/svg">
<style type="text/css">
	.st0{fill:#232323;}
	.st1{fill:url(#a);}
</style>
<path class="st0" d="m244.3 0h0.4c134.9 0 244.3 109.4 244.3 244.3v13.6c0 134.9-109.4 244.3-244.3 244.3h-0.4c-134.9 0-244.3-109.4-244.3-244.3v-13.6c0-134.9 109.4-244.3 244.3-244.3z"/>
<linearGradient id="a" x1="300.55" x2="547.98" y1="184.63" y2="425.53" gradientTransform="matrix(1 0 0 -1 -176.24 555.86)" gradientUnits="userSpaceOnUse">
	<stop stop-color="#CF41E8" offset="0"/>
	<stop stop-color="#10F2B0" offset="1"/>
</linearGradient>
<path class="st1" d="m349 189c-0.8 0.9-1.8 1.6-2.9 2-1.1 0.5-2.3 0.7-3.5 0.7h-226.5c-8 0-12.1-10-6.5-16l37.2-39.5c0.8-0.9 1.8-1.6 3-2.1 1.1-0.5 2.3-0.7 3.5-0.7h227.4c8.1 0 12.1 10.1 6.4 16.1zm0 176.6c-1.7 1.7-4 2.7-6.4 2.7h-226.5c-8 0-12.1-9.8-6.5-15.6l37.2-38.6c0.8-0.9 1.9-1.6 3-2 1.1-0.5 2.3-0.7 3.5-0.7h227.4c8.1 0 12.1 9.9 6.4 15.7zm0-140.5c-1.7-1.7-4-2.7-6.4-2.7h-226.5c-8 0-12.1 9.8-6.5 15.6l37.2 38.6c0.8 0.9 1.9 1.6 3 2 1.1 0.5 2.3 0.7 3.5 0.7h227.4c8.1 0 12.1-9.9 6.4-15.7z" fill="url(#a)"/>
</svg>
